<svg width="252" height="252" viewBox="0 0 252 252" fill="none" xmlns="http://www.w3.org/2000/svg">
<g clip-path="url(#clip0_42_34)">
<path d="M0 0H252V252H0V0Z" fill="white"/>
<path d="M34.7587 39.1034H95.5863H34.7587ZM130.345 39.1034H139.035H130.345ZM156.414 39.1034H217.241H156.414ZM34.7587 47.793H43.4483H34.7587ZM86.8966 47.793H95.5863H86.8966ZM139.035 47.793H147.724H139.035ZM156.414 47.793H165.104H156.414ZM208.552 47.793H217.241H208.552ZM34.7587 56.4827H43.4483H34.7587ZM52.138 56.4827H78.2069H52.138ZM86.8966 56.4827H95.5863H86.8966ZM112.966 56.4827H121.655H112.966ZM130.345 56.4827H147.724H130.345ZM156.414 56.4827H165.104H156.414ZM173.793 56.4827H199.862H173.793ZM208.552 56.4827H217.241H208.552ZM34.7587 65.1724H43.4483H34.7587ZM52.138 65.1724H78.2069H52.138ZM86.8966 65.1724H95.5863H86.8966ZM112.966 65.1724H121.655H112.966ZM139.035 65.1724H147.724H139.035ZM156.414 65.1724H165.104H156.414ZM173.793 65.1724H199.862H173.793ZM208.552 65.1724H217.241H208.552ZM34.7587 73.862H43.4483H34.7587ZM52.138 73.862H78.2069H52.138ZM86.8966 73.862H95.5863H86.8966ZM121.655 73.862H130.345H121.655ZM139.035 73.862H147.724H139.035ZM156.414 73.862H165.104H156.414ZM173.793 73.862H199.862H173.793ZM208.552 73.862H217.241H208.552ZM34.7587 82.5517H43.4483H34.7587ZM86.8966 82.5517H95.5863H86.8966ZM104.276 82.5517H147.724H104.276ZM156.414 82.5517H165.104H156.414ZM208.552 82.5517H217.241H208.552ZM34.7587 91.2413H95.5863H34.7587ZM104.276 91.2413H112.966H104.276ZM121.655 91.2413H130.345H121.655ZM139.035 91.2413H147.724H139.035ZM156.414 91.2413H217.241H156.414ZM121.655 99.931H147.724H121.655ZM34.7587 108.621H43.4483H34.7587ZM60.8276 108.621H69.5173H60.8276ZM78.2069 108.621H95.5863H78.2069ZM104.276 108.621H121.655H104.276ZM147.724 108.621H156.414H147.724ZM165.104 108.621H173.793H165.104ZM43.4483 117.31H86.8966H43.4483ZM156.414 117.31H182.483H156.414ZM191.172 117.31H217.241H191.172ZM52.138 126H60.8276H52.138ZM86.8966 126H95.5863H86.8966ZM104.276 126H130.345H104.276ZM139.035 126H156.414H139.035ZM182.483 126H191.172H182.483ZM208.552 126H217.241H208.552ZM34.7587 134.69H43.4483H34.7587ZM52.138 134.69H69.5173H52.138ZM78.2069 134.69H86.8966H78.2069ZM130.345 134.69H139.035H130.345ZM156.414 134.69H165.104H156.414ZM182.483 134.69H191.172H182.483ZM208.552 134.69H217.241H208.552ZM52.138 143.379H69.5173H52.138ZM86.8966 143.379H95.5863H86.8966ZM112.966 143.379H121.655H112.966ZM139.035 143.379H147.724H139.035ZM165.104 143.379H191.172H165.104ZM104.276 152.069H112.966H104.276ZM121.655 152.069H139.035H121.655ZM165.104 152.069H173.793H165.104ZM199.862 152.069H217.241H199.862ZM34.7587 160.759H95.5863H34.7587ZM112.966 160.759H130.345H112.966ZM147.724 160.759H182.483H147.724ZM191.172 160.759H208.552H191.172ZM34.7587 169.448H43.4483H34.7587ZM86.8966 169.448H95.5863H86.8966ZM104.276 169.448H112.966H104.276ZM121.655 169.448H147.724H121.655ZM165.104 169.448H182.483H165.104ZM208.552 169.448H217.241H208.552ZM34.7587 178.138H43.4483H34.7587ZM52.138 178.138H78.2069H52.138ZM86.8966 178.138H95.5863H86.8966ZM112.966 178.138H121.655H112.966ZM130.345 178.138H139.035H130.345ZM147.724 178.138H156.414H147.724ZM182.483 178.138H191.172H182.483ZM199.862 178.138H208.552H199.862ZM34.7587 186.828H43.4483H34.7587ZM52.138 186.828H78.2069H52.138ZM86.8966 186.828H95.5863H86.8966ZM104.276 186.828H112.966H104.276ZM121.655 186.828H130.345H121.655ZM165.104 186.828H191.172H165.104ZM199.862 186.828H217.241H199.862ZM34.7587 195.517H43.4483H34.7587ZM52.138 195.517H78.2069H52.138ZM86.8966 195.517H95.5863H86.8966ZM112.966 195.517H121.655H112.966ZM139.035 195.517H156.414H139.035ZM165.104 195.517H182.483H165.104ZM191.172 195.517H199.862H191.172ZM208.552 195.517H217.241H208.552ZM34.7587 204.207H43.4483H34.7587ZM86.8966 204.207H95.5863H86.8966ZM147.724 204.207H156.414H147.724ZM173.793 204.207H182.483H173.793ZM34.7587 212.896H95.5863H34.7587ZM104.276 212.896H130.345H104.276ZM156.414 212.896H182.483H156.414ZM199.862 212.896H208.552H199.862Z" fill="black"/>
<path d="M34.7587 39.1034H95.5863M130.345 39.1034H139.035M156.414 39.1034H217.241M34.7587 47.793H43.4483M86.8966 47.793H95.5863M139.035 47.793H147.724M156.414 47.793H165.103M208.552 47.793H217.241M34.7587 56.4827H43.4483M52.138 56.4827H78.2069M86.8966 56.4827H95.5863M112.966 56.4827H121.655M130.345 56.4827H147.724M156.414 56.4827H165.103M173.793 56.4827H199.862M208.552 56.4827H217.241M34.7587 65.1724H43.4483M52.138 65.1724H78.2069M86.8966 65.1724H95.5863M112.966 65.1724H121.655M139.035 65.1724H147.724M156.414 65.1724H165.103M173.793 65.1724H199.862M208.552 65.1724H217.241M34.7587 73.862H43.4483M52.138 73.862H78.2069M86.8966 73.862H95.5863M121.655 73.862H130.345M139.035 73.862H147.724M156.414 73.862H165.103M173.793 73.862H199.862M208.552 73.862H217.241M34.7587 82.5517H43.4483M86.8966 82.5517H95.5863M104.276 82.5517H147.724M156.414 82.5517H165.103M208.552 82.5517H217.241M34.7587 91.2413H95.5863M104.276 91.2413H112.966M121.655 91.2413H130.345M139.035 91.2413H147.724M156.414 91.2413H217.241M121.655 99.931H147.724M34.7587 108.621H43.4483M60.8276 108.621H69.5173M78.2069 108.621H95.5863M104.276 108.621H121.655M147.724 108.621H156.414M165.103 108.621H173.793M43.4483 117.31H86.8966M156.414 117.31H182.483M191.172 117.31H217.241M52.138 126H60.8276M86.8966 126H95.5863M104.276 126H130.345M139.035 126H156.414M182.483 126H191.172M208.552 126H217.241M34.7587 134.69H43.4483M52.138 134.69H69.5173M78.2069 134.69H86.8966M130.345 134.69H139.035M156.414 134.69H165.103M182.483 134.69H191.172M208.552 134.69H217.241M52.138 143.379H69.5173M86.8966 143.379H95.5863M112.966 143.379H121.655M139.035 143.379H147.724M165.103 143.379H191.172M104.276 152.069H112.966M121.655 152.069H139.035M165.103 152.069H173.793M199.862 152.069H217.241M34.7587 160.759H95.5863M112.966 160.759H130.345M147.724 160.759H182.483M191.172 160.759H208.552M34.7587 169.448H43.4483M86.8966 169.448H95.5863M104.276 169.448H112.966M121.655 169.448H147.724M165.103 169.448H182.483M208.552 169.448H217.241M34.7587 178.138H43.4483M52.138 178.138H78.2069M86.8966 178.138H95.5863M112.966 178.138H121.655M130.345 178.138H139.035M147.724 178.138H156.414M182.483 178.138H191.172M199.862 178.138H208.552M34.7587 186.828H43.4483M52.138 186.828H78.2069M86.8966 186.828H95.5863M104.276 186.828H112.966M121.655 186.828H130.345M165.103 186.828H191.172M199.862 186.828H217.241M34.7587 195.517H43.4483M52.138 195.517H78.2069M86.8966 195.517H95.5863M112.966 195.517H121.655M139.035 195.517H156.414M165.103 195.517H182.483M191.172 195.517H199.862M208.552 195.517H217.241M34.7587 204.207H43.4483M86.8966 204.207H95.5863M147.724 204.207H156.414M173.793 204.207H182.483M34.7587 212.896H95.5863M104.276 212.896H130.345M156.414 212.896H182.483M199.862 212.896H208.552" stroke="black" stroke-width="8.68966"/>
</g>
<defs>
<clipPath id="clip0_42_34">
<rect width="252" height="252" fill="white"/>
</clipPath>
</defs>
</svg>
