<svg width="32" height="32" viewBox="0 0 32 32" fill="none" xmlns="http://www.w3.org/2000/svg">
<path d="M24.4375 30.0004C23.2175 30.0004 21.5037 29.5591 18.9375 28.1254C15.8168 26.3754 13.4031 24.7598 10.2993 21.6641C7.30684 18.6735 5.85059 16.7373 3.81247 13.0285C1.50997 8.84102 1.90247 6.64602 2.34122 5.7079C2.86372 4.58665 3.63497 3.91602 4.63184 3.2504C5.19806 2.87942 5.79726 2.56141 6.42184 2.3004C6.48434 2.27352 6.54247 2.2479 6.59434 2.22477C6.90372 2.0854 7.37247 1.87477 7.96622 2.09977C8.36247 2.24852 8.71622 2.5529 9.26997 3.09977C10.4056 4.21977 11.9575 6.71415 12.53 7.93915C12.9143 8.76477 13.1687 9.30977 13.1693 9.92102C13.1693 10.6366 12.8093 11.1885 12.3725 11.7841C12.2906 11.896 12.2093 12.0029 12.1306 12.1066C11.655 12.7316 11.5506 12.9123 11.6193 13.2348C11.7587 13.8829 12.7981 15.8123 14.5062 17.5166C16.2143 19.221 18.0881 20.1948 18.7387 20.3335C19.075 20.4054 19.2593 20.2966 19.9043 19.8041C19.9968 19.7335 20.0918 19.6604 20.1912 19.5873C20.8575 19.0916 21.3837 18.741 22.0825 18.741H22.0862C22.6943 18.741 23.215 19.0048 24.0775 19.4398C25.2025 20.0073 27.7718 21.5391 28.8987 22.676C29.4468 23.2285 29.7525 23.581 29.9018 23.9766C30.1268 24.5723 29.915 25.0391 29.7768 25.3516C29.7537 25.4035 29.7281 25.4604 29.7012 25.5235C29.4381 26.147 29.1182 26.7449 28.7456 27.3098C28.0812 28.3035 27.4081 29.0729 26.2843 29.596C25.7073 29.869 25.0758 30.0073 24.4375 30.0004Z" fill="white"/>
</svg>
