<svg width="222" height="65" viewBox="0 0 222 65" fill="none" xmlns="http://www.w3.org/2000/svg">
<path fill-rule="evenodd" clip-rule="evenodd" d="M32.6135 42.1663C30.4176 44.0612 27.5691 45.2052 24.4566 45.2052C17.5115 45.2052 11.8813 39.5098 11.8813 32.484C11.8813 25.4582 17.5115 19.7628 24.4566 19.7628C27.5691 19.7628 30.4176 20.9068 32.6135 22.8018C34.8094 20.9068 37.6579 19.7628 40.7704 19.7628C47.7155 19.7628 53.3456 25.4582 53.3456 32.484C53.3456 39.5098 47.7155 45.2052 40.7704 45.2052C37.6579 45.2052 34.8094 44.0612 32.6135 42.1663Z" fill="#ED0006"/>
<path fill-rule="evenodd" clip-rule="evenodd" d="M32.6135 42.1663C35.3174 39.833 37.0319 36.361 37.0319 32.484C37.0319 28.607 35.3174 25.135 32.6135 22.8018C34.8095 20.9068 37.6579 19.7628 40.7705 19.7628C47.7156 19.7628 53.3457 25.4582 53.3457 32.484C53.3457 39.5098 47.7156 45.2052 40.7705 45.2052C37.6579 45.2052 34.8095 44.0612 32.6135 42.1663Z" fill="#F9A000"/>
<path fill-rule="evenodd" clip-rule="evenodd" d="M32.6136 22.8018C35.3174 25.1351 37.0319 28.6069 37.0319 32.484C37.0319 36.361 35.3174 39.8329 32.6136 42.1662C29.9098 39.8329 28.1953 36.361 28.1953 32.484C28.1953 28.6069 29.9098 25.1351 32.6136 22.8018Z" fill="#FF5E00"/>
<g clip-path="url(#clip0_16_28)">
<path d="M93.1407 40.7624H88.7114L91.4797 23.7495H95.9094L93.1407 40.7624ZM84.9852 23.7495L80.7624 35.4511L80.2627 32.9313L80.2632 32.9322L78.7728 25.2813C78.7728 25.2813 78.5926 23.7495 76.6717 23.7495H69.6907L69.6088 24.0376C69.6088 24.0376 71.7436 24.4817 74.242 25.9821L78.0902 40.7628H82.7052L89.7522 23.7495H84.9852ZM119.824 40.7624H123.891L120.345 23.749H116.785C115.14 23.749 114.74 25.0169 114.74 25.0169L108.134 40.7624H112.751L113.675 38.2353H119.305L119.824 40.7624ZM114.95 34.7443L117.277 28.3777L118.587 34.7443H114.95ZM108.48 27.8407L109.112 24.1873C109.112 24.1873 107.162 23.4455 105.129 23.4455C102.93 23.4455 97.7107 24.4062 97.7107 29.0776C97.7107 33.4728 103.837 33.5274 103.837 35.8361C103.837 38.1447 98.3419 37.731 96.5284 36.2752L95.8699 40.0952C95.8699 40.0952 97.8477 41.0559 100.869 41.0559C103.892 41.0559 108.452 39.4909 108.452 35.2313C108.452 30.8078 102.271 30.396 102.271 28.4728C102.271 26.5492 106.585 26.7963 108.48 27.8407Z" fill="#2566AF"/>
<path d="M80.2632 32.9317L78.7728 25.2808C78.7728 25.2808 78.5926 23.749 76.6717 23.749H69.6907L69.6088 24.0371C69.6088 24.0371 72.9641 24.7325 76.1825 27.3378C79.2597 29.828 80.2632 32.9317 80.2632 32.9317Z" fill="#E6A540"/>
</g>
<path d="M216.593 25.5487L221.105 34.5205L211.613 43.5057L216.593 25.5487Z" fill="#018C45"/>
<path d="M213.455 25.5487L217.968 34.5205L208.475 43.5057L213.455 25.5487Z" fill="#F47920"/>
<path d="M148.343 31.9825H150.533C151.307 31.9825 151.868 31.8757 152.215 31.6487C152.562 31.4218 152.829 31.0346 152.976 30.4739C153.136 29.8998 153.096 29.5126 152.869 29.2856C152.642 29.0587 152.095 28.9519 151.24 28.9519H149.171L148.343 31.9825ZM141 41.2347L145.513 25H152.722C154.978 25 156.474 25.3605 157.248 26.0948C158.009 26.8291 158.156 28.0173 157.702 29.6862C157.422 30.6741 157.008 31.5019 156.42 32.1561C155.846 32.8103 155.085 33.331 154.164 33.7048C154.952 33.8917 155.459 34.2655 155.686 34.8396C155.913 35.4004 155.886 36.2281 155.606 37.3095L155.058 39.5792V39.6459C154.898 40.2868 154.952 40.6206 155.205 40.6473L155.045 41.248H150.172C150.185 40.8609 150.225 40.5271 150.252 40.2334C150.292 39.9397 150.332 39.7127 150.372 39.5525L150.826 37.937C151.053 37.0959 151.067 36.5085 150.853 36.1614C150.639 35.8142 150.159 35.6407 149.398 35.6407H147.355L145.766 41.2347H141ZM171.053 29.2589L167.728 41.2347H163.697L164.191 39.4857C163.483 40.18 162.749 40.714 162.014 41.0478C161.293 41.3949 160.519 41.5685 159.718 41.5685C159.05 41.5685 158.476 41.4483 158.022 41.208C157.555 40.9677 157.208 40.6072 156.968 40.1266C156.754 39.7127 156.674 39.192 156.701 38.5645C156.741 37.9504 156.954 36.9224 157.355 35.4805L159.077 29.2589H163.496L161.774 35.4404C161.52 36.3483 161.467 36.9891 161.587 37.3229C161.721 37.67 162.054 37.8569 162.602 37.8569C163.162 37.8569 163.63 37.6567 164.017 37.2428C164.404 36.8289 164.711 36.2281 164.938 35.4137L166.647 29.2456H171.053V29.2589ZM176.754 32.3029H178.316C179.317 32.3029 180.025 32.1828 180.439 31.9425C180.839 31.7022 181.119 31.2616 181.293 30.6474C181.467 30.0199 181.427 29.5927 181.159 29.3524C180.906 29.1121 180.265 28.9919 179.224 28.9919H177.675L176.754 32.3029ZM169.451 41.2347L173.95 25H180.145C181.507 25 182.575 25.0801 183.322 25.2537C184.07 25.4272 184.671 25.6942 185.098 26.0814C185.645 26.5888 185.979 27.2162 186.126 27.9773C186.26 28.7249 186.179 29.6061 185.899 30.6474C185.392 32.4632 184.511 33.8516 183.256 34.8263C181.987 35.7875 180.425 36.2682 178.569 36.2682H175.672L174.284 41.2347H169.451ZM192.161 35.881C191.693 36.0679 191.079 36.2548 190.332 36.4417C189.143 36.7621 188.476 37.1894 188.329 37.7101C188.222 38.0438 188.276 38.3108 188.436 38.5111C188.596 38.698 188.876 38.7915 189.277 38.7915C190.011 38.7915 190.599 38.6046 191.039 38.2441C191.48 37.8703 191.814 37.2962 192.04 36.4951C192.081 36.3216 192.121 36.2014 192.134 36.1079L192.161 35.881ZM191.093 41.2347L191.133 40.0999C190.425 40.6339 189.704 41.0344 188.97 41.2881C188.249 41.5418 187.474 41.6753 186.66 41.6753C185.405 41.6753 184.537 41.3415 184.03 40.674C183.536 40.0198 183.456 39.0718 183.79 37.8569C184.11 36.6687 184.697 35.7875 185.525 35.2268C186.353 34.6661 187.741 34.2522 189.691 33.9985C189.931 33.9585 190.265 33.9318 190.679 33.8783C192.121 33.7181 192.922 33.331 193.095 32.7035C193.189 32.3563 193.135 32.1027 192.922 31.9558C192.721 31.7956 192.334 31.7155 191.787 31.7155C191.333 31.7155 190.959 31.809 190.652 32.0092C190.345 32.2095 190.118 32.5032 189.971 32.9171H185.672C186.059 31.5686 186.86 30.554 188.049 29.8731C189.237 29.1788 190.799 28.8451 192.748 28.8451C193.656 28.8451 194.484 28.9252 195.205 29.1121C195.926 29.2856 196.46 29.5393 196.793 29.8464C197.221 30.2336 197.461 30.6608 197.541 31.1414C197.621 31.622 197.528 32.3163 197.287 33.2108L195.432 39.8863C195.378 40.0999 195.365 40.3001 195.392 40.4737C195.432 40.6473 195.498 40.7941 195.632 40.8876L195.538 41.2213H191.093V41.2347ZM195.565 45.9609L196.54 42.4096H197.808C198.235 42.4096 198.556 42.3295 198.796 42.1693C199.036 42.009 199.197 41.742 199.29 41.3816C199.343 41.2213 199.37 41.0611 199.383 40.8742C199.397 40.674 199.397 40.4603 199.383 40.22L198.703 29.2456H203.175L203.108 36.5085L207.007 29.2456H211.159L204.257 41.1679C203.469 42.503 202.908 43.4109 202.548 43.9182C202.187 44.4122 201.853 44.7994 201.52 45.0531C201.092 45.4135 200.625 45.6672 200.104 45.814C199.584 45.9609 198.809 46.041 197.755 46.041C197.448 46.041 197.1 46.041 196.727 46.0143C196.366 46.0143 195.966 45.9876 195.565 45.9609Z" fill="#29387E"/>
<defs>
<clipPath id="clip0_16_28">
<rect width="64.5" height="64.5" fill="white" transform="translate(64.5)"/>
</clipPath>
</defs>
</svg>
