<svg width="32" height="32" viewBox="0 0 32 32" fill="none" xmlns="http://www.w3.org/2000/svg">
<path d="M7.89384 16C7.89195 15.5817 7.80767 15.1679 7.64582 14.7822C7.48396 14.3965 7.2477 14.0465 6.95053 13.7522C6.65336 13.4578 6.30111 13.2249 5.9139 13.0667C5.52669 12.9086 5.1121 12.8283 4.69384 12.8304C2.92744 12.8304 1.49384 14.2496 1.49384 16C1.49594 16.4181 1.58037 16.8317 1.74232 17.2172C1.90427 17.6027 2.14057 17.9525 2.43772 18.2467C2.73486 18.5409 3.08705 18.7737 3.47415 18.9317C3.86126 19.0898 4.27571 19.1701 4.69384 19.168C6.46184 19.168 7.89384 17.7504 7.89384 16ZM11.481 9.27996L9.21864 11.52C9.81236 12.1054 10.2838 12.803 10.6056 13.5722C10.9274 14.3414 11.0931 15.1669 11.0931 16.0008C11.0931 16.8346 10.9274 17.6601 10.6056 18.4293C10.2838 19.1985 9.81236 19.8961 9.21864 20.4816L11.481 22.72C12.3712 21.8418 13.0779 20.7955 13.5603 19.6419C14.0428 18.4883 14.2912 17.2504 14.2912 16C14.2912 14.7496 14.0428 13.5116 13.5603 12.358C13.0779 11.2044 12.3712 10.1581 11.481 9.27996ZM16.009 4.79996L13.7466 7.03996C14.9337 8.21055 15.8764 9.60537 16.5198 11.1434C17.1632 12.6814 17.4945 14.332 17.4945 15.9992C17.4945 17.6663 17.1632 19.3169 16.5198 20.8549C15.8764 22.3929 14.9337 23.7878 13.7466 24.9584L16.009 27.2C17.4932 25.7367 18.6718 23.993 19.4762 22.0703C20.2806 20.1476 20.6948 18.0842 20.6948 16C20.6948 13.9157 20.2806 11.8523 19.4762 9.9296C18.6718 8.00689 17.4932 6.26323 16.009 4.79996ZM20.5338 0.318359L18.2714 2.55836C20.0525 4.31442 21.4668 6.40695 22.4321 8.71434C23.3974 11.0217 23.8945 13.498 23.8945 15.9992C23.8945 18.5003 23.3974 20.9766 22.4321 23.284C21.4668 25.5914 20.0525 27.6839 18.2714 29.44L20.5338 31.68C22.6117 29.6312 24.2617 27.19 25.3879 24.498C26.5142 21.8061 27.0941 18.9172 27.0941 15.9992C27.0941 13.0811 26.5142 10.1922 25.3879 7.50027C24.2617 4.80833 22.6117 2.36707 20.5338 0.318359Z" fill="#169976"/>
<circle cx="4.48" cy="16" r="4.48" fill="#222222"/>
</svg>
