<svg width="50" height="50" viewBox="0 0 50 50" fill="none" xmlns="http://www.w3.org/2000/svg">
<circle cx="25" cy="25" r="25" fill="#D9D9D9"/>
<path d="M25 25C23.9 25 22.9583 24.6083 22.175 23.825C21.3917 23.0417 21 22.1 21 21C21 19.9 21.3917 18.9583 22.175 18.175C22.9583 17.3917 23.9 17 25 17C26.1 17 27.0417 17.3917 27.825 18.175C28.6083 18.9583 29 19.9 29 21C29 22.1 28.6083 23.0417 27.825 23.825C27.0417 24.6083 26.1 25 25 25ZM17 33V30.2C17 29.6333 17.146 29.1127 17.438 28.638C17.73 28.1633 18.1173 27.8007 18.6 27.55C19.6333 27.0333 20.6833 26.646 21.75 26.388C22.8167 26.13 23.9 26.0007 25 26C26.1 25.9993 27.1833 26.1287 28.25 26.388C29.3167 26.6473 30.3667 27.0347 31.4 27.55C31.8833 27.8 32.271 28.1627 32.563 28.638C32.855 29.1133 33.0007 29.634 33 30.2V33H17Z" fill="black"/>
</svg>
