<svg width="50" height="50" viewBox="0 0 50 50" fill="none" xmlns="http://www.w3.org/2000/svg">
<circle cx="25" cy="25" r="25" fill="#D9D9D9"/>
<path d="M19 35C18.45 35 17.9793 34.8043 17.588 34.413C17.1967 34.0217 17.0007 33.5507 17 33V23C17 22.45 17.196 21.9793 17.588 21.588C17.98 21.1967 18.4507 21.0007 19 21H20V19C20 17.6167 20.4877 16.4377 21.463 15.463C22.4383 14.4883 23.6173 14.0007 25 14C26.3827 13.9993 27.562 14.487 28.538 15.463C29.514 16.439 30.0013 17.618 30 19V21H31C31.55 21 32.021 21.196 32.413 21.588C32.805 21.98 33.0007 22.4507 33 23V33C33 33.55 32.8043 34.021 32.413 34.413C32.0217 34.805 31.5507 35.0007 31 35H19ZM25 30C25.55 30 26.021 29.8043 26.413 29.413C26.805 29.0217 27.0007 28.5507 27 28C26.9993 27.4493 26.8037 26.9787 26.413 26.588C26.0223 26.1973 25.5513 26.0013 25 26C24.4487 25.9987 23.978 26.1947 23.588 26.588C23.198 26.9813 23.002 27.452 23 28C22.998 28.548 23.194 29.019 23.588 29.413C23.982 29.807 24.4527 30.0027 25 30ZM22 21H28V19C28 18.1667 27.7083 17.4583 27.125 16.875C26.5417 16.2917 25.8333 16 25 16C24.1667 16 23.4583 16.2917 22.875 16.875C22.2917 17.4583 22 18.1667 22 19V21Z" fill="black"/>
</svg>
