<svg width="58" height="58" viewBox="0 0 58 58" fill="none" xmlns="http://www.w3.org/2000/svg">
<circle cx="28.8674" cy="28.9625" r="28.5" transform="rotate(-90.2405 28.8674 28.9625)" fill="#FFF8EC"/>
<path d="M30.2852 16.5C31.6915 16.5038 32.4052 16.5113 33.0215 16.5288L33.264 16.5375C33.544 16.5475 33.8202 16.56 34.154 16.575C35.484 16.6375 36.3915 16.8475 37.1877 17.1563C38.0127 17.4738 38.7077 17.9037 39.4027 18.5975C40.0386 19.2222 40.5305 19.9781 40.844 20.8125C41.1527 21.6087 41.3627 22.5162 41.4252 23.8475C41.4402 24.18 41.4527 24.4563 41.4627 24.7375L41.4702 24.98C41.489 25.595 41.4965 26.3088 41.499 27.715L41.5002 28.6475V30.285C41.5033 31.1968 41.4937 32.1085 41.4715 33.02L41.464 33.2625C41.454 33.5437 41.4415 33.82 41.4265 34.1525C41.364 35.4837 41.1515 36.39 40.844 37.1875C40.5305 38.0219 40.0386 38.7778 39.4027 39.4025C38.7781 40.0384 38.0221 40.5302 37.1877 40.8438C36.3915 41.1525 35.484 41.3625 34.154 41.425L33.264 41.4625L33.0215 41.47C32.4052 41.4875 31.6915 41.4963 30.2852 41.4988L29.3527 41.5H27.7165C26.8043 41.5032 25.8921 41.4936 24.9802 41.4712L24.7377 41.4638C24.441 41.4525 24.1443 41.4396 23.8477 41.425C22.5177 41.3625 21.6102 41.1525 20.8127 40.8438C19.9788 40.5301 19.2233 40.0382 18.599 39.4025C17.9627 38.778 17.4704 38.022 17.1565 37.1875C16.8477 36.3912 16.6377 35.4837 16.5752 34.1525L16.5377 33.2625L16.5315 33.02C16.5084 32.1085 16.498 31.1968 16.5002 30.285V27.715C16.4968 26.8033 16.5059 25.8915 16.5277 24.98L16.5365 24.7375C16.5465 24.4563 16.559 24.18 16.574 23.8475C16.6365 22.5162 16.8465 21.61 17.1552 20.8125C17.4698 19.9777 17.963 19.2218 18.6002 18.5975C19.2242 17.9619 19.9792 17.4701 20.8127 17.1563C21.6102 16.8475 22.5165 16.6375 23.8477 16.575C24.1802 16.56 24.4577 16.5475 24.7377 16.5375L24.9802 16.53C25.8917 16.5078 26.8035 16.4982 27.7152 16.5012L30.2852 16.5ZM29.0002 22.75C27.3426 22.75 25.7529 23.4085 24.5808 24.5806C23.4087 25.7527 22.7502 27.3424 22.7502 29C22.7502 30.6576 23.4087 32.2473 24.5808 33.4194C25.7529 34.5915 27.3426 35.25 29.0002 35.25C30.6578 35.25 32.2475 34.5915 33.4196 33.4194C34.5917 32.2473 35.2502 30.6576 35.2502 29C35.2502 27.3424 34.5917 25.7527 33.4196 24.5806C32.2475 23.4085 30.6578 22.75 29.0002 22.75ZM29.0002 25.25C29.4927 25.2499 29.9803 25.3468 30.4353 25.5352C30.8903 25.7236 31.3038 25.9997 31.6521 26.3479C32.0003 26.6961 32.2766 27.1094 32.4652 27.5644C32.6537 28.0193 32.7508 28.5069 32.7508 28.9994C32.7509 29.4918 32.654 29.9795 32.4656 30.4345C32.2773 30.8895 32.0011 31.3029 31.6529 31.6512C31.3048 31.9995 30.8914 32.2758 30.4365 32.4643C29.9815 32.6528 29.4939 32.7499 29.0015 32.75C28.0069 32.75 27.0531 32.3549 26.3498 31.6517C25.6466 30.9484 25.2515 29.9946 25.2515 29C25.2515 28.0054 25.6466 27.0516 26.3498 26.3483C27.0531 25.6451 28.0069 25.25 29.0015 25.25M35.564 20.875C35.1496 20.875 34.7521 21.0396 34.4591 21.3326C34.1661 21.6257 34.0015 22.0231 34.0015 22.4375C34.0015 22.8519 34.1661 23.2493 34.4591 23.5424C34.7521 23.8354 35.1496 24 35.564 24C35.9784 24 36.3758 23.8354 36.6688 23.5424C36.9619 23.2493 37.1265 22.8519 37.1265 22.4375C37.1265 22.0231 36.9619 21.6257 36.6688 21.3326C36.3758 21.0396 35.9784 20.875 35.564 20.875Z" fill="black"/>
</svg>
