<svg width="58" height="58" viewBox="0 0 58 58" fill="none" xmlns="http://www.w3.org/2000/svg">
<circle cx="28.8674" cy="28.9625" r="28.5" transform="rotate(-90.2405 28.8674 28.9625)" fill="#FFF8EC"/>
<path d="M30.285 16.5C31.6912 16.5038 32.405 16.5113 33.0212 16.5288L33.2637 16.5375C33.5437 16.5475 33.82 16.56 34.1537 16.575C35.4837 16.6375 36.3912 16.8475 37.1875 17.1563C38.0125 17.4738 38.7075 17.9037 39.4025 18.5975C40.0383 19.2222 40.5302 19.9781 40.8437 20.8125C41.1525 21.6087 41.3625 22.5162 41.425 23.8475C41.44 24.18 41.4525 24.4563 41.4625 24.7375L41.47 24.98C41.4887 25.595 41.4962 26.3088 41.4987 27.715L41.5 28.6475V30.285C41.503 31.1968 41.4934 32.1085 41.4712 33.02L41.4637 33.2625C41.4537 33.5437 41.4412 33.82 41.4262 34.1525C41.3637 35.4837 41.1512 36.39 40.8437 37.1875C40.5302 38.0219 40.0383 38.7778 39.4025 39.4025C38.7778 40.0384 38.0219 40.5302 37.1875 40.8438C36.3912 41.1525 35.4837 41.3625 34.1537 41.425L33.2637 41.4625L33.0212 41.47C32.405 41.4875 31.6912 41.4963 30.285 41.4988L29.3525 41.5H27.7162C26.8041 41.5032 25.8919 41.4936 24.98 41.4712L24.7375 41.4638C24.4407 41.4525 24.1441 41.4396 23.8475 41.425C22.5175 41.3625 21.61 41.1525 20.8125 40.8438C19.9785 40.5301 19.223 40.0382 18.5987 39.4025C17.9624 38.778 17.4701 38.022 17.1562 37.1875C16.8475 36.3912 16.6375 35.4837 16.575 34.1525L16.5375 33.2625L16.5312 33.02C16.5082 32.1085 16.4978 31.1968 16.5 30.285V27.715C16.4965 26.8033 16.5057 25.8915 16.5275 24.98L16.5362 24.7375C16.5462 24.4563 16.5587 24.18 16.5737 23.8475C16.6362 22.5162 16.8462 21.61 17.155 20.8125C17.4696 19.9777 17.9628 19.2218 18.6 18.5975C19.2239 17.9619 19.979 17.4701 20.8125 17.1563C21.61 16.8475 22.5162 16.6375 23.8475 16.575C24.18 16.56 24.4575 16.5475 24.7375 16.5375L24.98 16.53C25.8915 16.5078 26.8032 16.4982 27.715 16.5012L30.285 16.5ZM29 22.75C27.3424 22.75 25.7527 23.4085 24.5806 24.5806C23.4085 25.7527 22.75 27.3424 22.75 29C22.75 30.6576 23.4085 32.2473 24.5806 33.4194C25.7527 34.5915 27.3424 35.25 29 35.25C30.6576 35.25 32.2473 34.5915 33.4194 33.4194C34.5915 32.2473 35.25 30.6576 35.25 29C35.25 27.3424 34.5915 25.7527 33.4194 24.5806C32.2473 23.4085 30.6576 22.75 29 22.75ZM29 25.25C29.4924 25.2499 29.9801 25.3468 30.4351 25.5352C30.8901 25.7236 31.3035 25.9997 31.6518 26.3479C32.0001 26.6961 32.2764 27.1094 32.4649 27.5644C32.6534 28.0193 32.7505 28.5069 32.7506 28.9994C32.7507 29.4918 32.6538 29.9795 32.4654 30.4345C32.277 30.8895 32.0009 31.3029 31.6527 31.6512C31.3045 31.9995 30.8912 32.2758 30.4362 32.4643C29.9813 32.6528 29.4937 32.7499 29.0012 32.75C28.0067 32.75 27.0528 32.3549 26.3496 31.6517C25.6463 30.9484 25.2512 29.9946 25.2512 29C25.2512 28.0054 25.6463 27.0516 26.3496 26.3483C27.0528 25.6451 28.0067 25.25 29.0012 25.25M35.5637 20.875C35.1493 20.875 34.7519 21.0396 34.4589 21.3326C34.1658 21.6257 34.0012 22.0231 34.0012 22.4375C34.0012 22.8519 34.1658 23.2493 34.4589 23.5424C34.7519 23.8354 35.1493 24 35.5637 24C35.9781 24 36.3756 23.8354 36.6686 23.5424C36.9616 23.2493 37.1262 22.8519 37.1262 22.4375C37.1262 22.0231 36.9616 21.6257 36.6686 21.3326C36.3756 21.0396 35.9781 20.875 35.5637 20.875Z" fill="black"/>
</svg>
