<svg width="58" height="58" viewBox="0 0 58 58" fill="none" xmlns="http://www.w3.org/2000/svg">
<circle cx="28.6164" cy="28.6194" r="28.5" transform="rotate(-90.2405 28.6164 28.6194)" fill="#FFF8EC"/>
<path d="M39.5875 16.5H18.4125C18.1744 16.4967 17.9381 16.5403 17.7169 16.6284C17.4957 16.7164 17.2941 16.8472 17.1234 17.0131C16.9528 17.1791 16.8166 17.3771 16.7224 17.5958C16.6283 17.8144 16.5782 18.0495 16.575 18.2875V39.7125C16.5782 39.9505 16.6283 40.1856 16.7224 40.4042C16.8166 40.6229 16.9528 40.8209 17.1234 40.9869C17.2941 41.1528 17.4957 41.2836 17.7169 41.3716C17.9381 41.4597 18.1744 41.5033 18.4125 41.5H39.5875C39.8255 41.5033 40.0618 41.4597 40.283 41.3716C40.5042 41.2836 40.7058 41.1528 40.8765 40.9869C41.0471 40.8209 41.1833 40.6229 41.2775 40.4042C41.3716 40.1856 41.4217 39.9505 41.425 39.7125V18.2875C41.4217 18.0495 41.3716 17.8144 41.2775 17.5958C41.1833 17.3771 41.0471 17.1791 40.8765 17.0131C40.7058 16.8472 40.5042 16.7164 40.283 16.6284C40.0618 16.5403 39.8255 16.4967 39.5875 16.5ZM24.1125 37.425H20.3625V26.175H24.1125V37.425ZM22.2375 24.6C21.7203 24.6 21.2243 24.3946 20.8586 24.0289C20.4929 23.6632 20.2875 23.1672 20.2875 22.65C20.2875 22.1328 20.4929 21.6368 20.8586 21.2711C21.2243 20.9054 21.7203 20.7 22.2375 20.7C22.5121 20.6689 22.7902 20.6961 23.0535 20.7799C23.3169 20.8636 23.5596 21.0021 23.7658 21.1862C23.9719 21.3703 24.1369 21.5958 24.2498 21.8481C24.3627 22.1004 24.4211 22.3736 24.4211 22.65C24.4211 22.9264 24.3627 23.1996 24.2498 23.4519C24.1369 23.7042 23.9719 23.9297 23.7658 24.1138C23.5596 24.2979 23.3169 24.4364 23.0535 24.5201C22.7902 24.6039 22.5121 24.6311 22.2375 24.6ZM37.6375 37.425H33.8875V31.3875C33.8875 29.875 33.35 28.8875 31.9875 28.8875C31.5658 28.8906 31.1552 29.0228 30.811 29.2665C30.4668 29.5101 30.2056 29.8533 30.0625 30.25C29.9646 30.5438 29.9222 30.8532 29.9375 31.1625V37.4125H26.1875V26.1625H29.9375V27.75C30.2781 27.1589 30.7736 26.6719 31.3705 26.3415C31.9674 26.0111 32.6432 25.8498 33.325 25.875C35.825 25.875 37.6375 27.4875 37.6375 30.95V37.425Z" fill="black"/>
</svg>
