<svg width="58" height="58" viewBox="0 0 58 58" fill="none" xmlns="http://www.w3.org/2000/svg">
<circle cx="28.6164" cy="28.6194" r="28.5" transform="rotate(-90.2405 28.6164 28.6194)" fill="#FFF8EC"/>
<path d="M39.5877 16.5H18.4127C18.1747 16.4967 17.9383 16.5403 17.7172 16.6284C17.496 16.7164 17.2943 16.8472 17.1237 17.0131C16.9531 17.1791 16.8168 17.3771 16.7227 17.5958C16.6286 17.8144 16.5785 18.0495 16.5752 18.2875V39.7125C16.5785 39.9505 16.6286 40.1856 16.7227 40.4042C16.8168 40.6229 16.9531 40.8209 17.1237 40.9869C17.2943 41.1528 17.496 41.2836 17.7172 41.3716C17.9383 41.4597 18.1747 41.5033 18.4127 41.5H39.5877C39.8257 41.5033 40.0621 41.4597 40.2832 41.3716C40.5044 41.2836 40.7061 41.1528 40.8767 40.9869C41.0473 40.8209 41.1836 40.6229 41.2777 40.4042C41.3718 40.1856 41.4219 39.9505 41.4252 39.7125V18.2875C41.4219 18.0495 41.3718 17.8144 41.2777 17.5958C41.1836 17.3771 41.0473 17.1791 40.8767 17.0131C40.7061 16.8472 40.5044 16.7164 40.2832 16.6284C40.0621 16.5403 39.8257 16.4967 39.5877 16.5ZM24.1127 37.425H20.3627V26.175H24.1127V37.425ZM22.2377 24.6C21.7205 24.6 21.2245 24.3946 20.8588 24.0289C20.4931 23.6632 20.2877 23.1672 20.2877 22.65C20.2877 22.1328 20.4931 21.6368 20.8588 21.2711C21.2245 20.9054 21.7205 20.7 22.2377 20.7C22.5123 20.6689 22.7904 20.6961 23.0538 20.7799C23.3172 20.8636 23.5599 21.0021 23.766 21.1862C23.9722 21.3703 24.1371 21.5958 24.25 21.8481C24.363 22.1004 24.4213 22.3736 24.4213 22.65C24.4213 22.9264 24.363 23.1996 24.25 23.4519C24.1371 23.7042 23.9722 23.9297 23.766 24.1138C23.5599 24.2979 23.3172 24.4364 23.0538 24.5201C22.7904 24.6039 22.5123 24.6311 22.2377 24.6ZM37.6377 37.425H33.8877V31.3875C33.8877 29.875 33.3502 28.8875 31.9877 28.8875C31.566 28.8906 31.1554 29.0228 30.8112 29.2665C30.467 29.5101 30.2058 29.8533 30.0627 30.25C29.9649 30.5438 29.9225 30.8532 29.9377 31.1625V37.4125H26.1877V26.1625H29.9377V27.75C30.2784 27.1589 30.7738 26.6719 31.3707 26.3415C31.9677 26.0111 32.6434 25.8498 33.3252 25.875C35.8252 25.875 37.6377 27.4875 37.6377 30.95V37.425Z" fill="black"/>
</svg>
