<svg width="30" height="24" viewBox="0 0 30 24" fill="none" xmlns="http://www.w3.org/2000/svg">
<path d="M30 5.30273V19.5002C30.0001 20.6481 29.5615 21.7525 28.7741 22.5876C27.9866 23.4227 26.9098 23.9254 25.764 23.9927L25.5 24.0002H4.5C3.35218 24.0003 2.24773 23.5617 1.41261 22.7743C0.57749 21.9869 0.0748387 20.9101 0.00750017 19.7642L0 19.5002V5.30273L14.1675 14.7482L14.3415 14.8472C14.5466 14.9474 14.7718 14.9995 15 14.9995C15.2282 14.9995 15.4534 14.9474 15.6585 14.8472L15.8325 14.7482L30 5.30273Z" fill="white"/>
<path d="M25.5 0C27.12 0 28.5405 0.855 29.3325 2.1405L15 11.6955L0.66748 2.1405C1.04367 1.52973 1.56042 1.01775 2.17464 0.647234C2.78886 0.276718 3.48276 0.0584059 4.19848 0.0105L4.49998 0H25.5Z" fill="white"/>
</svg>
