<svg width="26" height="26" viewBox="0 0 26 26" fill="none" xmlns="http://www.w3.org/2000/svg">
<path d="M20.885 0.333344L5.09921 0.333344C3.83574 0.335019 2.62451 0.837671 1.73111 1.73107C0.837701 2.62448 0.33505 3.83571 0.333374 5.09918L0.333374 20.885C0.335467 22.1525 0.839921 23.3676 1.7362 24.2638C2.63249 25.1601 3.84751 25.6646 5.11504 25.6667H20.9009C22.1643 25.665 23.3756 25.1623 24.269 24.2689C25.1624 23.3755 25.665 22.1643 25.6667 20.9008V5.11501C25.6646 3.84748 25.1602 2.63246 24.2639 1.73617C23.3676 0.83989 22.1526 0.335437 20.885 0.333344ZM9.83337 1.91668L16.1667 1.91668V8.25001H9.83337V1.91668ZM8.25004 24.0833H5.11504C4.26718 24.0821 3.4544 23.7447 2.85487 23.1452C2.25533 22.5457 1.91796 21.7329 1.91671 20.885L1.91671 17.75H8.25004V24.0833ZM16.1667 24.0833H9.83337V17.75H16.1667V24.0833ZM24.0834 20.9008C24.0834 21.7449 23.7481 22.5544 23.1512 23.1512C22.5544 23.748 21.7449 24.0833 20.9009 24.0833H17.75V17.75H24.0834V20.9008ZM24.0834 16.1667H1.91671L1.91671 5.09918C1.91671 4.25513 2.25201 3.44564 2.84884 2.84881C3.44567 2.25198 4.25516 1.91668 5.09921 1.91668H8.25004V9.04168C8.25004 9.25164 8.33345 9.453 8.48191 9.60147C8.63038 9.74994 8.83174 9.83334 9.04171 9.83334H24.0834V16.1667ZM24.0834 8.25001H17.75V1.91668L20.885 1.91668C21.7329 1.91793 22.5457 2.2553 23.1452 2.85483C23.7447 3.45437 24.0821 4.26715 24.0834 5.11501V8.25001Z" fill="white"/>
</svg>
