<svg width="58" height="58" viewBox="0 0 58 58" fill="none" xmlns="http://www.w3.org/2000/svg">
<circle cx="28.6194" cy="28.9921" r="28.5" transform="rotate(-90.2405 28.6194 28.9921)" fill="#FFF8EC"/>
<path d="M39.46 23C38.69 23.35 37.86 23.58 37 23.69C37.88 23.16 38.56 22.32 38.88 21.31C38.05 21.81 37.13 22.16 36.16 22.36C35.37 21.5 34.26 21 33 21C30.65 21 28.73 22.92 28.73 25.29C28.73 25.63 28.77 25.96 28.84 26.27C25.28 26.09 22.11 24.38 20 21.79C19.63 22.42 19.42 23.16 19.42 23.94C19.42 25.43 20.17 26.75 21.33 27.5C20.62 27.5 19.96 27.3 19.38 27V27.03C19.38 29.11 20.86 30.85 22.82 31.24C22.1909 31.4129 21.5301 31.4369 20.89 31.31C21.1616 32.1625 21.6936 32.9084 22.4111 33.4429C23.1285 33.9775 23.9955 34.2737 24.89 34.29C23.3737 35.4905 21.494 36.1394 19.56 36.13C19.22 36.13 18.88 36.11 18.54 36.07C20.44 37.29 22.7 38 25.12 38C33 38 37.33 31.46 37.33 25.79C37.33 25.6 37.33 25.42 37.32 25.23C38.16 24.63 38.88 23.87 39.46 23Z" fill="black"/>
</svg>
