<svg width="58" height="58" viewBox="0 0 58 58" fill="none" xmlns="http://www.w3.org/2000/svg">
<circle cx="29.1179" cy="29.3057" r="28.5" transform="rotate(-90.2405 29.1179 29.3057)" fill="#FFF8EC"/>
<path d="M26.5 33.75L32.9875 30L26.5 26.25V33.75ZM40.95 23.9625C41.1125 24.55 41.225 25.3375 41.3 26.3375C41.3875 27.3375 41.425 28.2 41.425 28.95L41.5 30C41.5 32.7375 41.3 34.75 40.95 36.0375C40.6375 37.1625 39.9125 37.8875 38.7875 38.2C38.2 38.3625 37.125 38.475 35.475 38.55C33.85 38.6375 32.3625 38.675 30.9875 38.675L29 38.75C23.7625 38.75 20.5 38.55 19.2125 38.2C18.0875 37.8875 17.3625 37.1625 17.05 36.0375C16.8875 35.45 16.775 34.6625 16.7 33.6625C16.6125 32.6625 16.575 31.8 16.575 31.05L16.5 30C16.5 27.2625 16.7 25.25 17.05 23.9625C17.3625 22.8375 18.0875 22.1125 19.2125 21.8C19.8 21.6375 20.875 21.525 22.525 21.45C24.15 21.3625 25.6375 21.325 27.0125 21.325L29 21.25C34.2375 21.25 37.5 21.45 38.7875 21.8C39.9125 22.1125 40.6375 22.8375 40.95 23.9625Z" fill="black"/>
</svg>
